<?xml version="1.0" encoding="iso-8859-1"?>
<!-- Uploaded to: SVG Repo, www.svgrepo.com, Generator: SVG Repo Mixer Tools -->
<svg version="1.1" id="Layer_1" xmlns="http://www.w3.org/2000/svg" xmlns:xlink="http://www.w3.org/1999/xlink" 
	 viewBox="0 0 512 512" xml:space="preserve">
<rect y="99.089" style="fill:#DFDFE2;" width="512" height="228.133"/>
<rect x="255.937" y="99.1" style="fill:#D7D6D9;" width="256.063" height="228.133"/>
<g>
	<rect x="240.327" y="309.469" style="fill:#DFDFE2;" width="31.347" height="87.771"/>
	<path style="fill:#DFDFE2;" d="M186.204,374.665c0,3.803-3.094,6.898-6.897,6.898h-30.931v31.347h30.931
		c21.088,0,38.244-17.156,38.244-38.245v-65.2h-31.347V374.665z"/>
	<path style="fill:#DFDFE2;" d="M332.385,381.564c-3.803,0-6.897-3.095-6.897-6.898v-65.2h-31.347v65.2
		c0,21.089,17.156,38.245,38.244,38.245h30.931v-31.347H332.385z"/>
</g>
<g>
	<rect x="255.937" y="309.469" style="fill:#D7D6D9;" width="15.736" height="87.771"/>
	<path style="fill:#D7D6D9;" d="M332.385,381.564c-3.803,0-6.897-3.095-6.897-6.898v-65.2h-31.347v65.2
		c0,21.089,17.156,38.245,38.244,38.245h30.931v-31.347H332.385z"/>
</g>
<rect x="463.611" y="269.063" style="fill:#00CFB4;" width="24.686" height="24.686"/>
<rect x="71.053" y="211.771" style="fill:#57565C;" width="369.894" height="115.461"/>
<rect x="136.882" y="158.345" style="fill:#00CFB4;" width="238.237" height="31.347"/>
<rect x="255.937" y="211.771" style="fill:#3E3D43;" width="185.01" height="115.461"/>
<rect x="255.937" y="158.356" style="fill:#00AF94;" width="119.181" height="31.347"/>
</svg>